<?xml version="1.0" encoding="utf-8"?>
<!-- Generator: Adobe Illustrator 26.0.0, SVG Export Plug-In . SVG Version: 6.00 Build 0)  -->
<svg version="1.1" id="Layer_1" xmlns="http://www.w3.org/2000/svg" xmlns:xlink="http://www.w3.org/1999/xlink" x="0px" y="0px"
	 viewBox="0 0 2627.1 1542.8" style="enable-background:new 0 0 2627.1 1542.8;" xml:space="preserve">
<style type="text/css">
	.st0{fill:#FFFFFF;}
</style>
<g>
	<path class="st0" d="M2358.8,529.7c143-165.8,231.7-335.1,234.7-510C1900.8,82.4,1512,379.9,1298.3,823.6l-68.6-113.8l-6.2,120.1
		l75.6,157.5c183.2-499.1,584.8-844.5,1119.8-864.8c8.3,124.1-30.2,243.9-106,360.3L2358.8,529.7z"/>
	<path class="st0" d="M955.6,107.8c20.4,9.6,43.6-6.1,46.2-32.8c167.5,55.9,321.9,301.1,358.9,591.2l53.8-62.4
		c-20.3-91.3-53-179.9-96.5-262.7c-38.8-73.9-86.4-144.4-145.5-203.6c-45.3-45.3-100.3-87.7-163.9-102.3
		c-27.4-6.3-61-12.7-72.1,20.5C929.6,76.3,938.2,99.6,955.6,107.8z"/>
	<path class="st0" d="M1566.1,86.5c2.2,17,16.4,30.3,34,30.6c19.4,0.4,35.4-14.9,35.9-34.3S1621,47.4,1601.7,47
		c-85-17.2-220.1,115.2-294,244.8l28.1,39.8C1402.6,217.7,1477,128.1,1566.1,86.5z"/>
	<path class="st0" d="M1429.3,745.7l-52.2,87.3c1.2,111.4-29.4,220.6-81.1,328.3c-117.5-231.6-108-485.4-13.3-754l-21.8-41.3
		c-152.8,352.5-148.2,743.9,24.2,1035.5C1391.1,1192.6,1446.3,975.2,1429.3,745.7z"/>
	<path class="st0" d="M312.7,472.7l31.2,52.2c197.3-86.6,538.8,74.1,671.4,298.7c157,266,57.1,474.7-256.5,611.3
		C648,1260.3,710,979.4,894.4,908.6c59-22.6,90.6-48.9,82.7-92c-372.7,90.5-803.9-300.2-770.4-701.8
		c298.7,17.9,610.7,194.6,944.3,595.7l16.4-85C806.8,196.5,427.4,21.5,33.5,41.5c73.2,393.7,252.7,722.5,758.7,852.3
		c-203.3,177.1-202,419.5-59.3,621.5C1123.7,1382,1258.6,1056,1069.1,780C895.5,527.1,531.8,380.7,312.7,472.7z"/>
	<path class="st0" d="M646.4,900.1c-9.9-16.4-31.2-21.6-47.6-11.7c-16.4,9.9-21.6,31.2-11.7,47.6C415.6,973.4,155.9,779.2,256.5,610
		l-46.8-60.8c-179.7,317.5,212.1,521.9,419.9,401C649.9,942,657.3,918.1,646.4,900.1z"/>
	<path class="st0" d="M2129.6,428.3c-258.7-10.7-502.9,151.5-634,382.9c-202.7,357.9,43.7,671.4,399.2,711.9
		c68.2-250.9,33.5-498.3-124.8-623.8c191.9-44.8,368.1-132.5,520.9-284.6l-50.7-54.6c-225.4,231.6-477.8,323-647.2,262.8
		c-7.6,37.8,22,67.2,74.1,92.8c162.2,79.6,230.5,281.1,180.9,531.8c-156.5-39.1-265.2-117.7-320.5-233.2
		c-78-163-37.7-394.3,206.6-577c221.6-165.8,477.1-192.3,559.1-54.6c109.5,184.1-120.8,374.8-336.8,366.6
		c25.9-62-54.1-76.8-72.2-30.1c-10.3,26.4,7.6,54.7,33.5,58c104.4,27.1,205.2,21.4,301.4-25.7
		C2463.3,839.2,2443.4,441.3,2129.6,428.3z"/>
</g>
</svg>
